<svg xmlns="http://www.w3.org/2000/svg" viewBox="-381.071 -153.952 1021 634">
  <path d="M 171.3 96 H 224 v 96 H 111.3 l 30.4 -75.9 C 146.5 104 158.2 96 171.3 96 z M 272 192 V 96 h 81.2 c 9.7 0 18.9 4.4 25 12 l 67.2 84 H 272 z m 256.2 1 L 428.2 68 c -18.2 -22.8 -45.8 -36 -75 -36 H 171.3 c -39.3 0 -74.6 23.9 -89.1 60.3 L 40.6 196.4 C 16.8 205.8 0 228.9 0 256 V 368 c 0 17.7 14.3 32 32 32 H 65.3 c 7.6 45.4 47.1 80 94.7 80 s 87.1 -34.6 94.7 -80 H 385.3 c 7.6 45.4 47.1 80 94.7 80 s 87.1 -34.6 94.7 -80 H 608 c 17.7 0 32 -14.3 32 -32 V 320 c 0 -65.2 -48.8 -119 -111.8 -127 z m -2.9 207 c -6.6 18.6 -24.4 32 -45.3 32 s -38.7 -13.4 -45.3 -32 c -1.8 -5 -2.7 -10.4 -2.7 -16 c 0 -26.5 21.5 -48 48 -48 s 48 21.5 48 48 c 0 5.6 -1 11 -2.7 16 z M 160 432 c -20.9 0 -38.7 -13.4 -45.3 -32 c -1.8 -5 -2.7 -10.4 -2.7 -16 c 0 -26.5 21.5 -48 48 -48 s 48 21.5 48 48 c 0 5.6 -1 11 -2.7 16 c -6.6 18.6 -24.4 32 -45.3 32 z M -62 257 C -62 239 -71 234 -89 233 C -88 222 -95 214 -106 218 C -90 201 -95 180 -119 181 C -133 173 -140 187 -138 201 C -144 212 -140 228 -128 223 C -131 240 -118 250 -107 246 C -97 264 -70 293 -62 258 M 0 350 H -45 C -36 341 -36 340 -45 332 H 0 M -160 117 C -117 128 -102 115 -106 70 C -43 7 -80 -8 -129 2 C -55 -72 -102 -102 -189 -81 C -138 -210 -294 -147 -321 -53 C -363 -113 -429 60 -327 51 C -393 122 -241 159 -257 104 C -207 181 -151 192 -160 117" fill="#000000"/>
</svg>